# xmcd
# Track frame offsets:
# 150
# 12991
# 24543
# 39860
# 52796
# 63771
# 77998
# 89934
# 100688
# 113420
# 127201
# 140277
# 153956
# 167613
# 178746
#
# Disc length: 2553 seconds
# Revision: 0
# Processed by: cddbd v1.5.2PL0 Copyright (c) Steve Scherf et al.
# Submitted via: VisiTrax 2.9.10.228 - For more info visit www.synapsa.com
#
DISCID=b709f70f
DTITLE=Reeves, Jim - CB90052
DYEAR=1900
DGENRE=Karaoke
TTITLE0=Missin' You
TTITLE1=Adios Amigo
TTITLE2=This Is It
TTITLE3=Am I Losing You
TTITLE4=Blue Boy
TTITLE5=Red Rose From The Blue Side Of Town
TTITLE6=I Guess I'm Crazy
TTITLE7=He'll Have To Go
TTITLE8=Welcome To My World
TTITLE9=Four Walls
TTITLE10=Blue Side Of Lonesome
TTITLE11=Bimbo
TTITLE12=Distant Drums
TTITLE13=Is It Really Over?
TTITLE14=Mexican Joe
EXTD=
EXTT0=
EXTT1=
EXTT2=
EXTT3=
EXTT4=
EXTT5=
EXTT6=
EXTT7=
EXTT8=
EXTT9=
EXTT10=
EXTT11=
EXTT12=
EXTT13=
EXTT14=
PLAYORDER=
